<?xml version="1.0" standalone="no"?>
<!DOCTYPE svg PUBLIC "-//W3C//DTD SVG 20010904//EN"
 "http://www.w3.org/TR/2001/REC-SVG-20010904/DTD/svg10.dtd">
<svg version="1.0" xmlns="http://www.w3.org/2000/svg"
 width="1024.000000pt" height="1024.000000pt" viewBox="0 0 1024.000000 1024.000000"
 preserveAspectRatio="xMidYMid meet">

<g transform="translate(0.000000,1024.000000) scale(0.100000,-0.100000)"
fill="#000000" stroke="none">
<path d="M0 5120 l0 -5120 5120 0 5120 0 0 5120 0 5120 -5120 0 -5120 0 0
-5120z m5215 3576 c52 -22 43 -35 -18 -29 -76 8 -135 -20 -182 -86 -22 -31
-44 -51 -56 -51 -22 0 -22 -2 -8 41 16 46 55 97 93 120 38 23 121 25 171 5z
m1556 -79 c34 -23 53 -60 27 -55 -7 2 -12 -4 -10 -12 2 -8 0 -11 -5 -7 -4 5
-8 14 -8 20 0 14 -47 21 -80 13 -31 -8 -85 -54 -85 -73 0 -8 -10 -23 -22 -33
-19 -15 -20 -20 -9 -34 7 -9 18 -16 23 -16 6 0 5 7 -2 15 -11 13 -7 12 18 -2
17 -10 28 -21 25 -26 -2 -4 -11 -3 -19 4 -12 10 -13 9 -8 -5 3 -9 10 -16 16
-16 5 0 6 -5 3 -11 -9 -14 -30 -6 -30 12 0 8 -6 14 -12 14 -7 0 -14 5 -15 10
-1 6 -7 16 -14 23 -26 25 -27 78 -4 120 44 77 143 105 211 59z m-4643 -265 c2
-192 0 -226 -14 -247 l-16 -25 -214 0 c-244 0 -223 -11 -199 103 37 175 185
336 354 383 91 25 86 39 89 -214z m3076 197 c32 -38 33 -70 2 -105 -48 -56
-146 -22 -146 51 0 82 92 116 144 54z m-2931 13 c-9 -6 -13 -61 -16 -197 l-2
-190 -3 198 c-2 182 -1 197 16 197 12 0 13 -3 5 -8z m5871 -38 c3 -25 4 -50 1
-54 -2 -4 -24 -10 -48 -12 -110 -13 -236 -106 -286 -211 -16 -34 -32 -84 -36
-112 l-6 -50 -50 3 c-48 4 -49 5 -49 36 0 47 28 133 63 196 75 133 243 244
378 249 24 1 27 -3 33 -45z m-5141 4 c26 -30 22 -73 -9 -97 -35 -28 -69 -26
-99 4 -33 32 -31 60 5 97 25 24 36 29 58 24 15 -4 35 -16 45 -28z m317 2 c30
-30 27 -83 -6 -109 -34 -27 -52 -26 -81 1 -28 26 -31 82 -6 110 21 24 68 23
93 -2z m299 -6 c12 -15 21 -34 21 -44 0 -29 -39 -70 -66 -70 -29 0 -74 41 -74
68 0 33 38 72 70 72 19 0 36 -9 49 -26z m286 6 c21 -24 24 -72 5 -94 -16 -21
-74 -20 -94 0 -21 20 -20 73 1 96 21 24 65 23 88 -2z m295 0 c40 -40 15 -110
-40 -110 -41 0 -62 21 -63 64 -2 62 60 89 103 46z m292 3 c26 -23 24 -78 -4
-97 -30 -21 -54 -20 -78 4 -58 58 21 148 82 93z m278 -3 c33 -33 20 -80 -26
-94 -26 -8 -74 28 -74 55 0 25 35 59 60 59 11 0 29 -9 40 -20z m831 -1 c26
-26 21 -57 -13 -82 -25 -19 -28 -19 -52 -3 -20 12 -26 25 -26 51 0 54 52 73
91 34z m1499 1 c29 -29 26 -74 -6 -99 -15 -12 -33 -21 -41 -21 -22 0 -63 47
-63 72 0 61 68 90 110 48z m317 -2 c50 -47 17 -132 -52 -132 -65 0 -99 76 -59
132 21 30 79 30 111 0z m-1029 -4 c26 -18 28 -46 6 -68 -13 -14 -55 -16 -306
-16 -257 0 -294 2 -310 17 -22 20 -23 46 -2 67 23 24 578 24 612 0z m373 -7
c-10 -9 -11 -8 -5 6 3 10 9 15 12 12 3 -3 0 -11 -7 -18z m1469 -200 c51 -24
110 -85 132 -134 70 -158 -53 -342 -230 -343 -65 0 -115 24 -165 79 -49 54
-67 101 -67 175 0 172 181 294 330 223z m-4072 -80 c13 -12 22 -32 22 -49 0
-36 -40 -78 -75 -78 -32 0 -75 41 -75 72 0 46 53 93 90 80 8 -3 25 -14 38 -25z
m2087 -2 c48 -47 19 -115 -50 -115 -67 0 -96 61 -54 114 27 34 71 35 104 1z
m-2662 2 c18 -8 38 -21 46 -30 12 -15 9 -17 -39 -17 -63 0 -125 -31 -147 -73
-8 -16 -10 -26 -5 -23 13 8 45 -41 36 -55 -3 -6 -15 -9 -25 -6 -13 4 -19 0
-19 -11 -1 -33 -31 38 -37 86 -4 39 -1 52 18 76 48 61 108 79 172 53z m-321
-104 c24 -22 23 -49 -4 -67 -18 -13 -53 -16 -178 -16 -165 0 -200 9 -200 50 0
45 21 50 197 50 141 0 169 -3 185 -17z m4222 1 c21 -21 20 -40 -4 -64 -19 -19
-33 -20 -220 -20 -187 0 -201 1 -220 20 -24 24 -24 29 -4 58 15 22 20 22 224
22 176 0 211 -2 224 -16z m-2412 -272 c2 -120 2 -284 0 -364 l-4 -145 -92 -7
c-174 -13 -364 -48 -511 -94 -79 -25 -247 -92 -259 -103 -22 -20 -37 -5 -87
84 -28 50 -53 94 -55 96 -9 9 -213 -117 -278 -172 l-30 -24 63 -78 c34 -42 61
-81 59 -85 -2 -4 -52 -45 -113 -90 -60 -45 -138 -109 -172 -143 l-62 -60 -157
149 c-86 82 -202 192 -258 245 l-101 96 20 23 c28 31 215 194 302 263 113 90
309 219 428 284 363 197 853 334 1216 341 l86 2 5 -218z m434 203 c197 -22
511 -106 747 -201 130 -52 345 -162 432 -220 251 -169 373 -263 505 -391 l85
-82 -40 -41 c-22 -23 -133 -132 -247 -242 l-207 -199 -57 42 c-32 23 -74 57
-93 74 -20 17 -78 60 -128 95 -51 34 -93 65 -93 68 0 6 69 94 85 107 6 6 17
20 23 31 10 18 8 26 -13 48 -37 40 -237 166 -264 166 -5 0 -24 -26 -42 -57
-18 -32 -43 -75 -56 -95 l-23 -37 -67 30 c-89 40 -212 84 -292 104 -67 17 -80
13 -81 -25 0 -13 -51 -219 -108 -435 -21 -79 -13 -75 -125 -56 -88 16 -110 31
-43 31 25 0 47 -4 50 -9 3 -5 14 -11 24 -13 23 -6 25 18 3 28 -13 5 -11 8 9
13 25 7 25 7 28 144 2 129 4 137 22 137 13 0 20 7 20 20 0 11 5 20 10 20 6 0
10 11 10 25 0 14 5 25 10 25 6 0 10 16 10 35 0 29 4 35 21 35 16 0 20 5 16 20
-3 10 0 21 7 23 20 7 -124 35 -270 53 l-141 17 -6 180 c-4 99 -7 263 -7 364
l0 183 78 0 c42 0 136 -7 208 -15z m-3502 -35 c7 -43 62 -114 97 -125 18 -6
19 -17 19 -157 l0 -150 -37 7 c-213 40 -370 207 -397 423 l-5 42 158 0 158 0
7 -40z m5396 -205 c71 -37 67 -136 -7 -174 -51 -26 -105 -3 -129 55 -12 29
-12 39 0 68 26 61 78 81 136 51z m-4378 -25 c26 -27 30 -36 25 -67 -16 -94
-120 -115 -163 -32 -20 39 -11 82 23 109 38 29 79 26 115 -10z m-1210 -367
c24 -22 24 -77 -2 -103 -30 -30 -83 -27 -109 6 -12 15 -21 34 -21 44 0 10 9
29 21 44 24 31 81 36 111 9z m388 -53 c18 -18 20 -33 20 -188 0 -160 1 -170
21 -188 31 -27 59 -95 53 -129 -8 -43 -22 -63 -55 -81 -17 -8 -29 -11 -25 -6
11 17 -32 20 -51 3 -60 -54 -153 52 -124 141 6 19 27 50 46 68 l35 34 0 163
c0 150 2 165 20 183 11 11 25 20 30 20 6 0 19 -9 30 -20z m5978 -2 c8 -8 12
-62 12 -177 l0 -165 32 -36 c18 -19 26 -29 18 -22 -7 6 -28 12 -44 12 -36 0
-97 -34 -94 -52 2 -7 -2 -12 -8 -11 -16 3 -44 -30 -49 -57 -10 -54 -35 -33
-35 29 0 42 5 54 39 92 l39 44 7 170 c5 107 12 173 19 177 17 12 51 9 64 -4z
m-305 -215 c40 -37 0 -123 -58 -123 -31 0 -75 41 -75 70 0 12 14 35 30 52 25
24 36 29 58 23 15 -3 35 -14 45 -22z m-6049 -64 c35 -41 34 -83 -3 -120 -61
-61 -141 -24 -141 64 0 55 30 87 81 87 29 0 43 -7 63 -31z m6786 16 c69 -36
76 -120 14 -174 -48 -43 -104 -43 -144 -1 -90 96 13 235 130 175z m-5608 -138
c291 -273 509 -481 676 -644 l193 -188 -47 -70 c-64 -97 -187 -348 -210 -428
-14 -51 -23 -67 -37 -67 -14 0 -590 141 -673 166 -20 5 -23 -1 -43 -108 -12
-62 -27 -177 -34 -255 l-11 -143 -293 0 c-186 0 -294 4 -298 10 -4 6 -1 79 5
163 36 507 206 989 494 1400 87 125 177 236 191 236 6 0 45 -32 87 -72z m4458
-23 c142 -179 307 -443 283 -451 -30 -10 -363 -178 -424 -214 -39 -22 -72 -39
-73 -37 -1 1 -30 50 -64 108 -62 103 -152 232 -195 278 l-22 23 200 194 c110
107 205 194 210 194 6 0 44 -42 85 -95z m-2202 -167 c12 -3 11 -5 -5 -6 -23
-1 -23 0 -21 132 l2 132 3 -127 c3 -110 6 -127 21 -131z m2832 63 c0 -12 -7
-20 -16 -20 -13 0 -14 -3 -4 -15 23 -27 5 -36 -20 -10 -14 15 -20 26 -15 24
17 -4 45 13 45 27 0 8 2 14 5 14 3 0 5 -9 5 -20z m-6282 -54 c32 -16 68 -54
59 -62 -3 -3 -17 2 -32 12 -22 14 -32 15 -66 5 -48 -14 -101 -59 -122 -103
l-16 -33 -11 30 c-37 96 93 200 188 151z m3250 -13 c-10 -2 -26 -2 -35 0 -10
3 -2 5 17 5 19 0 27 -2 18 -5z m-2871 -9 c-3 -3 -12 -4 -19 -1 -8 3 -5 6 6 6
11 1 17 -2 13 -5z m2786 -1 c-7 -2 -21 -2 -30 0 -10 3 -4 5 12 5 17 0 24 -2
18 -5z m350 0 c-7 -2 -21 -2 -30 0 -10 3 -4 5 12 5 17 0 24 -2 18 -5z m-478
-24 c-16 -4 -33 -5 -37 -1 -4 4 10 8 30 9 37 1 37 1 7 -8z m-46 -13 c-12 -10
-59 -15 -59 -6 0 5 14 10 32 10 17 0 29 -2 27 -4z m130 -351 c16 -8 40 -28 55
-45 26 -31 26 -34 26 -185 l0 -153 73 -7 c39 -4 86 -5 102 -3 l30 3 5 155 c6
173 11 190 81 229 90 51 215 -6 235 -108 l7 -31 -76 0 c-64 0 -75 -2 -71 -15
7 -17 54 -21 54 -5 0 6 14 10 30 10 20 0 30 -5 30 -15 0 -8 5 -15 10 -15 6 0
10 -36 10 -89 0 -77 -2 -90 -17 -93 -10 -2 9 -9 42 -15 144 -27 256 -97 326
-205 58 -90 51 -115 -16 -57 -34 30 -36 31 -54 14 -19 -16 -19 -17 0 -49 10
-18 24 -67 30 -111 19 -139 -16 -257 -101 -343 l-42 -42 46 14 c56 17 60 11 9
-11 l-38 -16 40 -12 c98 -29 175 -87 224 -169 19 -31 31 -59 28 -63 -4 -3 -24
5 -44 19 -30 19 -43 23 -60 15 l-21 -9 20 -59 c29 -87 23 -222 -14 -301 -37
-80 -107 -152 -187 -191 l-66 -32 -319 -3 c-305 -3 -318 -2 -311 15 4 10 12
50 17 88 5 39 10 74 11 78 1 5 106 9 232 10 260 2 274 5 337 75 60 66 65 169
12 246 -36 52 -120 96 -181 96 -52 0 -55 12 -7 29 33 12 75 10 129 -6 18 -5
18 -4 5 12 -8 10 -33 29 -55 44 -40 26 -42 26 -267 29 -126 2 -228 7 -228 11
0 4 3 11 8 15 9 9 9 12 11 85 l1 59 193 4 c174 3 196 5 232 25 108 58 152 168
106 268 -20 46 -76 98 -124 119 -31 13 -33 16 -34 65 0 29 -3 54 -5 57 -3 2
-128 1 -279 -2 l-274 -7 0 -41 c0 -23 -2 -341 -3 -708 l-2 -668 -220 0 -220 0
0 -61 0 -61 -27 7 c-38 9 -90 61 -104 103 -25 75 17 169 87 198 19 8 68 14
114 14 l80 0 0 554 0 554 -94 4 c-103 4 -134 17 -166 71 -31 50 -35 91 -13
134 38 72 53 77 251 83 l177 5 5 157 c5 150 6 158 30 184 58 62 129 81 189 49z
m-3150 -12 c20 -17 20 -28 22 -287 2 -289 3 -286 -51 -286 -49 0 -50 6 -50
291 0 265 0 268 22 283 28 20 31 20 57 -1z m326 -108 c14 -13 25 -33 25 -45 0
-27 -43 -70 -70 -70 -27 0 -70 43 -70 70 0 27 43 70 70 70 12 0 32 -11 45 -25z
m6185 3 c40 -44 12 -118 -45 -118 -31 0 -75 41 -75 70 0 29 44 70 74 70 14 0
34 -10 46 -22z m310 -358 c40 -40 12 -100 -45 -100 -28 0 -37 6 -50 30 -9 17
-13 36 -9 43 29 50 70 61 104 27z m-6806 -296 c37 -37 3 -98 -50 -92 -18 2
-34 13 -43 29 -13 24 -13 29 2 53 20 30 66 35 91 10z m6811 -8 c37 -56 -36
-115 -87 -69 -20 18 -24 63 -6 81 21 21 76 15 93 -12z m-6790 -270 c19 -8 35
-17 35 -19 0 -3 -27 -5 -61 -6 -33 0 -75 -8 -94 -17 -42 -19 -92 -75 -112
-121 -18 -44 -38 -37 -37 11 2 48 47 114 99 143 47 27 119 30 170 9z m6796 3
c121 -41 175 -169 119 -284 -27 -55 -69 -90 -131 -106 -119 -32 -248 71 -249
196 0 22 11 63 24 92 42 88 145 133 237 102z m-6810 -132 c46 -35 47 -101 2
-137 -45 -35 -101 -23 -128 30 -21 40 -19 54 11 89 20 24 34 31 62 31 21 0 44
-6 53 -13z m774 -124 c-172 -7 -345 -7 -345 0 0 4 93 6 208 5 114 -1 176 -3
137 -5z m-777 -346 c17 -13 15 -57 -5 -79 -28 -31 -79 -21 -94 19 -22 58 47
100 99 60z m6806 -9 c21 -30 20 -44 -4 -68 -37 -37 -100 -14 -100 36 0 52 74
75 104 32z m-6812 -275 c10 -9 18 -26 18 -39 0 -57 -81 -73 -109 -23 -13 24
-13 29 2 53 20 30 61 35 89 9z m3047 -237 c2 -188 1 -189 -84 -185 l-45 3 0
118 0 118 -142 2 c-113 1 -130 3 -83 8 128 16 165 23 176 36 6 8 18 14 25 14
8 0 14 7 14 15 0 10 11 15 33 16 30 1 31 1 7 9 -19 6 -9 8 37 9 l61 1 1 -164z
m3456 9 c48 -47 19 -115 -49 -115 -64 0 -90 79 -40 119 35 27 59 26 89 -4z
m-6187 -1 c29 -20 30 -76 2 -104 -44 -44 -113 -12 -113 52 0 56 63 86 111 52z
m3133 -67 c2 -67 4 -77 18 -71 9 4 26 9 39 11 13 3 22 13 22 24 0 12 7 19 18
19 11 0 23 10 29 22 9 20 11 16 17 -30 7 -57 -4 -92 -32 -93 -9 0 -41 -4 -69
-8 l-53 -7 0 109 c0 125 8 142 11 24z m-3438 49 c27 -21 20 -34 -18 -33 -21 1
-46 -7 -64 -21 -37 -27 -41 -27 -41 -2 0 52 80 88 123 56z m402 -321 c65 -64
-17 -161 -88 -105 -34 27 -36 74 -5 107 28 30 63 29 93 -2z m-363 -154 c57
-56 98 -105 96 -112 -12 -36 -103 -50 -181 -28 -54 15 -77 56 -77 137 0 49 4
66 20 82 11 11 25 20 31 20 6 0 56 -45 111 -99z m6779 29 l24 -19 -32 -1 c-53
0 -85 -18 -141 -78 -38 -40 -55 -53 -63 -45 -27 27 32 132 85 153 39 16 103
11 127 -10z m-6227 -199 c33 -36 -4 -82 -54 -66 -25 8 -37 50 -20 70 17 21 54
19 74 -4z m5802 -77 c71 -34 98 -119 60 -191 -24 -47 -60 -67 -117 -66 -152 2
-190 206 -49 262 37 14 68 13 106 -5z m-5999 -120 c95 -97 97 -96 -213 -92
-252 3 -253 3 -278 27 -32 30 -35 82 -6 111 19 19 33 20 226 20 l206 0 65 -66z
m253 -267 c0 -5 -5 -5 -12 -1 -7 4 -8 3 -4 -4 4 -6 12 -9 19 -6 7 2 24 -7 37
-22 l25 -27 -25 7 c-14 4 -33 9 -42 10 -10 1 -26 10 -36 19 -22 20 -114 25
-94 5 8 -8 9 -15 1 -25 -15 -18 -29 -16 -59 7 l-25 20 23 0 c12 0 22 -4 22
-10 0 -5 10 -10 22 -10 16 0 19 3 11 11 -24 24 -492 22 -477 -2 3 -5 -12 -9
-33 -10 -80 -1 -87 -6 -87 -55 0 -32 -1 -34 -13 -18 -23 31 -16 80 14 104 27
21 33 21 380 18 194 -2 353 -7 353 -11z m5728 -19 c8 -8 12 -48 12 -113 0
-107 -7 -125 -47 -125 -34 0 -43 29 -43 132 0 99 7 118 45 118 12 0 26 -5 33
-12z m-6035 -9 c9 -6 17 -15 17 -20 0 -7 -7 -8 -17 -4 -10 4 -70 8 -133 10
-63 1 -117 4 -120 5 -3 1 11 6 30 10 51 10 202 9 223 -1z m421 -74 c21 -25 35
-45 32 -45 -7 0 -76 74 -76 83 0 14 8 7 44 -38z m422 -174 c21 -16 99 -89 172
-163 l132 -135 0 -91 0 -92 -195 0 c-149 0 -195 -3 -196 -12 0 -7 -4 -4 -9 7
-5 11 -9 122 -9 248 -1 214 0 228 19 247 27 27 40 25 86 -9z m5074 -228 c0
-49 3 -145 7 -215 4 -80 2 -128 -4 -128 -5 0 -23 14 -41 31 -18 18 -36 28 -43
23 -8 -5 -9 -3 -4 5 4 7 -1 20 -11 30 -24 22 -153 166 -169 187 -10 15 -14 14
-31 -8 -10 -13 -26 -28 -34 -33 -29 -18 76 96 112 121 50 35 146 73 186 74
l32 0 0 -87z m272 48 c84 -39 157 -105 204 -183 40 -66 74 -177 74 -245 l0
-43 -110 0 c-90 0 -110 -3 -110 -15 0 -51 -67 -176 -94 -175 -6 1 -31 27 -56
60 -25 33 -49 59 -53 60 -5 0 1 13 12 29 26 37 27 77 1 119 -18 30 -20 50 -20
234 l0 201 43 -5 c24 -3 73 -19 109 -37z m-4759 -165 c18 -8 96 -76 175 -152
l143 -139 -1 -87 0 -88 -104 0 -105 0 2 -147 2 -148 -82 0 c-60 0 -86 4 -98
15 -13 13 -15 66 -15 370 -1 352 -1 355 21 373 26 21 22 20 62 3z m-1707 -49
c38 -33 37 -81 -1 -115 -24 -21 -36 -23 -79 -19 -89 8 -125 81 -65 131 41 35
106 36 145 3z m325 10 c44 -34 47 -103 6 -132 -55 -38 -137 1 -137 65 0 61 83
104 131 67z m4757 -141 l34 -37 -53 -57 c-60 -64 -121 -122 -130 -122 -3 0
-20 15 -38 34 -60 61 -52 140 21 201 28 24 38 27 82 22 42 -4 55 -11 84 -41z
m500 -79 c17 -13 15 -52 -4 -71 -23 -23 -279 -23 -312 0 -28 19 -28 48 -1 75
19 19 27 20 162 13 78 -3 148 -11 155 -17z m-3208 -54 c56 -57 57 -59 51 -103
l-6 -45 -97 -3 -98 -3 0 87 c0 99 13 124 63 124 23 0 43 -13 87 -57z m3797 10
c-3 -10 -5 -4 -5 12 0 17 2 24 5 18 2 -7 2 -21 0 -30z m-1787 -13 c65 -65 -41
-162 -108 -100 -48 45 -14 120 53 120 22 0 43 -8 55 -20z m-3570 -60 c11 -11
20 -33 20 -50 0 -17 -9 -39 -20 -50 -19 -19 -33 -20 -489 -20 l-470 0 -20 26
c-27 35 -26 59 4 89 l24 25 466 0 c452 0 466 -1 485 -20z m5422 -10 c16 0 18
-10 18 -91 l0 -92 -45 6 c-46 7 -125 41 -125 55 0 5 25 39 56 76 41 49 59 65
67 57 6 -6 19 -11 29 -11z m-2904 -92 c60 -15 126 -80 142 -138 44 -162 -133
-303 -286 -230 -47 23 -90 81 -102 138 -10 43 2 116 23 148 21 33 75 71 115
82 47 14 54 14 108 0z m-434 -154 c20 -20 20 -43 0 -72 -29 -42 -96 -19 -96
33 0 49 62 74 96 39z m838 -1 c22 -20 23 -42 2 -71 -40 -58 -118 5 -84 69 13
24 57 25 82 2z"/>
<path d="M8153 8065 c0 -33 2 -45 4 -27 2 18 2 45 0 60 -2 15 -4 0 -4 -33z"/>
</g>
</svg>
